<svg xmlns="http://www.w3.org/2000/svg" width="11" height="42" viewBox="0 0 11 42" fill="none">
  <path d="M4.5 0L4.49577 40.9217C4.49577 41.1544 4.63648 41.3655 4.85116 41.4557C5.06765 41.5459 5.3148 41.4972 5.48077 41.3312L9.97101 36.841C10.1965 36.6155 10.1965 36.2493 9.97101 36.0238C9.7455 35.7982 9.37929 35.7982 9.15378 36.0238L5.65035 39.5272L5.65035 0L4.5 0Z" fill="#222222"/>
  <path d="M2.47955e-05 36.426C2.47955e-05 36.2781 0.0559506 36.1302 0.169605 36.0183C0.395109 35.7928 0.761327 35.7928 0.986832 36.0183L5.48248 40.514C5.70799 40.7395 5.70799 41.1057 5.48248 41.3312C5.25698 41.5567 4.89076 41.5567 4.66526 41.3312L0.169605 36.8355C0.0559506 36.7219 2.47955e-05 36.574 2.47955e-05 36.426Z" fill="#222222"/>
</svg>