<svg xmlns="http://www.w3.org/2000/svg" width="11" height="10" viewBox="0 0 11 10" fill="none">
  <path d="M3.20069 9.18613L7.36426 5.02256L7.36426 8.20644C7.36417 8.57369 7.50998 8.92593 7.7696 9.18567C8.02922 9.44541 8.38139 9.59139 8.74864 9.59147C9.11589 9.59156 9.46813 9.44575 9.72787 9.18613C9.98761 8.92651 10.1336 8.57434 10.1337 8.20709L10.1337 3.52592C10.1325 2.6694 9.79172 1.8483 9.18607 1.24265C8.58042 0.636999 7.75932 0.296227 6.9028 0.295049L2.22163 0.295049C1.85438 0.295135 1.50221 0.441107 1.24259 0.700851C0.982967 0.960595 0.837163 1.31283 0.837249 1.68008C0.837335 2.04733 0.983306 2.3995 1.24305 2.65912C1.50279 2.91874 1.85503 3.06455 2.22228 3.06446H5.40616L1.24259 7.22803C0.982927 7.48769 0.837053 7.83986 0.837053 8.20708C0.837053 8.57429 0.982928 8.92647 1.24259 9.18613C1.50225 9.44579 1.85443 9.59167 2.22164 9.59167C2.58886 9.59167 2.94103 9.44579 3.20069 9.18613Z" fill="white"/>
</svg>