<svg xmlns="http://www.w3.org/2000/svg" width="12" height="20" viewBox="0 0 12 20" fill="none">
  <path d="M7.01172 20H3.8089C3.27393 20 2.83875 19.5648 2.83875 19.0298V11.8057H0.970154C0.435181 11.8057 0 11.3704 0 10.8356V7.74002C0 7.20505 0.435181 6.76987 0.970154 6.76987H2.83875V5.21973C2.83875 3.68271 3.32138 2.37503 4.23431 1.43829C5.15137 0.497284 6.43295 0 7.94052 0L10.3831 0.00396727C10.9172 0.00488281 11.3516 0.440063 11.3516 0.974121V3.84827C11.3516 4.38324 10.9166 4.81842 10.3818 4.81842L8.73718 4.81903C8.23563 4.81903 8.10791 4.91959 8.0806 4.95041C8.03558 5.00153 7.98203 5.14603 7.98203 5.54504V6.76971H10.2582C10.4295 6.76971 10.5956 6.81198 10.7382 6.89163C11.046 7.0636 11.2373 7.38876 11.2373 7.74017L11.2361 10.8357C11.2361 11.3704 10.8009 11.8056 10.266 11.8056H7.98203V19.0298C7.98203 19.5648 7.54669 20 7.01172 20ZM4.01123 18.8275H6.80939V11.2808C6.80939 10.9236 7.10007 10.6331 7.45712 10.6331H10.0636L10.0647 7.94235H7.45697C7.09991 7.94235 6.80939 7.65182 6.80939 7.29462V5.54504C6.80939 5.08698 6.85593 4.56604 7.20169 4.1745C7.61948 3.70117 8.27789 3.64655 8.73688 3.64655L10.1791 3.64594V1.17615L7.93961 1.17249C5.51682 1.17249 4.01123 2.72339 4.01123 5.21973V7.29462C4.01123 7.65167 3.7207 7.94235 3.36365 7.94235H1.17249V10.6331H3.36365C3.7207 10.6331 4.01123 10.9236 4.01123 11.2808V18.8275Z" fill="#B6B6B6"/>
</svg>