<svg xmlns="http://www.w3.org/2000/svg" width="20" height="20" viewBox="0 0 20 20" fill="none">
  <path d="M10.0032 4.86441C7.16737 4.86441 4.87158 7.1627 4.87158 9.99599C4.87158 12.8318 7.16987 15.1276 10.0032 15.1276C12.8389 15.1276 15.1347 12.8293 15.1347 9.99599C15.1347 7.1602 12.8364 4.86441 10.0032 4.86441ZM10.0032 13.3268C8.16236 13.3268 6.67238 11.836 6.67238 9.99599C6.67238 8.15602 8.16319 6.66521 10.0032 6.66521C11.8431 6.66521 13.3339 8.15602 13.3339 9.99599C13.3348 11.836 11.844 13.3268 10.0032 13.3268Z" fill="#B6B6B6"/>
  <path d="M14.1233 0.0628211C12.2833 -0.0230107 7.72589 -0.0188441 5.88425 0.0628211C4.26595 0.138653 2.83847 0.529479 1.68766 1.68029C-0.23564 3.60359 0.0101892 6.19521 0.0101892 9.99598C0.0101892 13.8859 -0.206474 16.4175 1.68766 18.3117C3.61846 20.2416 6.24758 19.9891 10.0033 19.9891C13.8566 19.9891 15.1866 19.9916 16.5491 19.4641C18.4015 18.745 19.7998 17.0892 19.9365 14.1151C20.0232 12.2743 20.0182 7.71769 19.9365 5.87605C19.7715 2.36528 17.8874 0.236151 14.1233 0.0628211ZM17.0357 17.0392C15.7749 18.3 14.0258 18.1875 9.97918 18.1875C5.81259 18.1875 4.14178 18.2492 2.92264 17.0267C1.5185 15.6292 1.77266 13.3851 1.77266 9.98265C1.77266 5.37856 1.30017 2.06279 5.92092 1.82612C6.98257 1.78862 7.29506 1.77612 9.96751 1.77612L10.005 1.80112C14.4458 1.80112 17.9299 1.33613 18.139 5.95605C18.1865 7.0102 18.1974 7.32686 18.1974 9.99515C18.1965 14.1134 18.2749 15.7942 17.0357 17.0392Z" fill="#B6B6B6"/>
  <path d="M15.3383 5.86106C16.0006 5.86106 16.5375 5.32418 16.5375 4.66191C16.5375 3.99964 16.0006 3.46277 15.3383 3.46277C14.676 3.46277 14.1392 3.99964 14.1392 4.66191C14.1392 5.32418 14.676 5.86106 15.3383 5.86106Z" fill="#B6B6B6"/>
</svg>