<svg xmlns="http://www.w3.org/2000/svg" width="26" height="30" viewBox="0 0 26 30" fill="none">
  <path d="M12.5674 7.50183C11.5786 7.50183 10.612 7.79505 9.78983 8.34441C8.96766 8.89377 8.32685 9.6746 7.94844 10.5881C7.57004 11.5017 7.47103 12.5069 7.66394 13.4768C7.85685 14.4466 8.33301 15.3374 9.03221 16.0366C9.73142 16.7358 10.6223 17.212 11.5921 17.4049C12.5619 17.5978 13.5671 17.4988 14.4807 17.1204C15.3942 16.742 16.1751 16.1012 16.7244 15.279C17.2738 14.4568 17.567 13.4902 17.567 12.5014C17.567 11.1754 17.0403 9.90377 16.1027 8.96617C15.1651 8.02857 13.8934 7.50183 12.5674 7.50183ZM12.5674 15.0012C12.073 15.0012 11.5897 14.8546 11.1786 14.5799C10.7675 14.3052 10.4471 13.9148 10.2579 13.458C10.0687 13.0012 10.0192 12.4986 10.1157 12.0137C10.2121 11.5288 10.4502 11.0834 10.7998 10.7338C11.1494 10.3842 11.5948 10.1461 12.0798 10.0496C12.5647 9.95319 13.0673 10.0027 13.5241 10.1919C13.9808 10.3811 14.3713 10.7015 14.6459 11.1126C14.9206 11.5237 15.0672 12.007 15.0672 12.5014C15.0672 13.1644 14.8039 13.8002 14.3351 14.269C13.8663 14.7378 13.2304 15.0012 12.5674 15.0012Z" fill="#222222"/>
  <path d="M12.5677 29.9999C11.5152 30.0053 10.4767 29.7585 9.53926 29.28C8.60178 28.8016 7.79257 28.1056 7.17938 27.2502C2.41604 20.6795 0 15.7399 0 12.5677C0 9.23451 1.32409 6.03788 3.68098 3.68098C6.03788 1.32409 9.23451 0 12.5677 0C15.9008 0 19.0975 1.32409 21.4543 3.68098C23.8112 6.03788 25.1353 9.23451 25.1353 12.5677C25.1353 15.7399 22.7193 20.6795 17.956 27.2502C17.3428 28.1056 16.5335 28.8016 15.5961 29.28C14.6586 29.7585 13.6201 30.0053 12.5677 29.9999ZM12.5677 2.72851C9.95841 2.73149 7.45688 3.76933 5.61186 5.61436C3.76683 7.45938 2.72899 9.96091 2.72601 12.5702C2.72601 15.0824 5.09206 19.7283 9.38669 25.6515C9.75128 26.1537 10.2296 26.5624 10.7825 26.8443C11.3353 27.1261 11.9471 27.273 12.5677 27.273C13.1882 27.273 13.8 27.1261 14.3529 26.8443C14.9058 26.5624 15.3841 26.1537 15.7486 25.6515C20.0433 19.7283 22.4093 15.0824 22.4093 12.5702C22.4063 9.96091 21.3685 7.45938 19.5235 5.61436C17.6785 3.76933 15.1769 2.73149 12.5677 2.72851Z" fill="#222222"/>
</svg>