<svg xmlns="http://www.w3.org/2000/svg" width="30" height="30" viewBox="0 0 30 30" fill="none">
  <path d="M27.5 0H21.25C20.587 0 19.9511 0.263392 19.4822 0.732233C19.0134 1.20107 18.75 1.83696 18.75 2.5V11.185C18.7506 11.6675 18.8873 12.14 19.1445 12.5482C19.4017 12.9565 19.7688 13.2839 20.2037 13.4928C20.6386 13.7017 21.1236 13.7836 21.6031 13.7292C22.0825 13.6747 22.5368 13.4861 22.9137 13.185L24.375 12.0162L25.8363 13.1862C26.2133 13.4874 26.6677 13.6761 27.1473 13.7305C27.6268 13.7849 28.1119 13.7028 28.5469 13.4938C28.9818 13.2847 29.3489 12.9571 29.606 12.5487C29.8631 12.1403 29.9996 11.6676 30 11.185V2.5C30 1.83696 29.7366 1.20107 29.2678 0.732233C28.7989 0.263392 28.163 0 27.5 0ZM27.3988 11.2338L25.1562 9.44C24.9345 9.2625 24.659 9.16578 24.375 9.16578C24.091 9.16578 23.8155 9.2625 23.5938 9.44L21.25 11.185V2.5H27.5L27.3988 11.2338ZM30 17.5V23.75C29.998 25.407 29.3389 26.9956 28.1672 28.1672C26.9956 29.3389 25.407 29.998 23.75 30H6.25C4.59301 29.998 3.00445 29.3389 1.83277 28.1672C0.661102 26.9956 0.00198482 25.407 0 23.75L0 10C0.00198482 8.34301 0.661102 6.75445 1.83277 5.58278C3.00445 4.4111 4.59301 3.75198 6.25 3.75H15C15.3315 3.75 15.6495 3.8817 15.8839 4.11612C16.1183 4.35054 16.25 4.66848 16.25 5C16.25 5.33152 16.1183 5.64946 15.8839 5.88388C15.6495 6.1183 15.3315 6.25 15 6.25H6.25C5.57026 6.25188 4.9039 6.4391 4.32265 6.79151C3.74139 7.14392 3.26725 7.64817 2.95125 8.25L12.3475 17.6475C13.0623 18.3288 14.0119 18.7088 14.9994 18.7088C15.9868 18.7088 16.9364 18.3288 17.6513 17.6475L18.7238 16.6012C18.8411 16.4863 18.98 16.3957 19.1324 16.3344C19.2848 16.2732 19.4478 16.2426 19.612 16.2443C19.7763 16.246 19.9385 16.2801 20.0896 16.3446C20.2407 16.409 20.3776 16.5026 20.4925 16.62C20.6074 16.7374 20.6981 16.8762 20.7593 17.0286C20.8206 17.181 20.8512 17.344 20.8494 17.5083C20.8477 17.6725 20.8136 17.8348 20.7492 17.9859C20.6847 18.1369 20.5911 18.2738 20.4737 18.3888L19.4125 19.425C18.2356 20.5847 16.649 21.234 14.9967 21.2321C13.3444 21.2303 11.7593 20.5774 10.585 19.415L2.5 11.3387V23.75C2.5 24.7446 2.89509 25.6984 3.59835 26.4017C4.30161 27.1049 5.25544 27.5 6.25 27.5H23.75C24.7446 27.5 25.6984 27.1049 26.4017 26.4017C27.1049 25.6984 27.5 24.7446 27.5 23.75V17.5C27.5 17.1685 27.6317 16.8505 27.8661 16.6161C28.1005 16.3817 28.4185 16.25 28.75 16.25C29.0815 16.25 29.3995 16.3817 29.6339 16.6161C29.8683 16.8505 30 17.1685 30 17.5Z" fill="#222222"/>
</svg>