<svg xmlns="http://www.w3.org/2000/svg" width="30" height="30" viewBox="0 0 30 30" fill="none">
  <path d="M27.7087 2.27117L26.3966 1.13402C24.8845 -0.378007 22.4353 -0.378007 20.9233 1.13402C20.8858 1.17151 18.574 4.18307 18.574 4.18307C17.1495 5.6826 17.1495 8.04436 18.574 9.5314L20.0236 11.3558C18.1991 15.492 15.3625 18.3411 11.3638 20.0406L9.53933 18.5786C8.05229 17.1415 5.67804 17.1415 4.191 18.5786C4.191 18.5786 1.17944 20.8903 1.14195 20.9278C-0.370073 22.4399 -0.370073 24.8891 1.07947 26.3386L2.32908 27.7757C3.76613 29.2127 5.70303 30 7.80237 30C17.3494 30 29.9954 17.3415 29.9954 7.80694C29.9954 5.72009 29.2082 3.7707 27.7087 2.28366V2.27117ZM7.80237 27.4883C6.37782 27.4883 5.06573 26.9634 4.16601 26.0512L2.9164 24.6142C2.40406 24.1018 2.37907 23.2646 2.86642 22.7273C2.86642 22.7273 5.85298 20.428 5.89047 20.3905C6.40281 19.8782 7.30253 19.8782 7.82737 20.3905C7.86485 20.428 10.3766 22.4399 10.3766 22.4399C10.7265 22.7148 11.1888 22.7898 11.6012 22.6273C16.7746 20.6529 20.4859 16.9541 22.6227 11.6182C22.7852 11.2059 22.7227 10.731 22.4353 10.3686C22.4353 10.3686 20.4234 7.84442 20.3984 7.81943C19.8611 7.2821 19.8611 6.41987 20.3984 5.88254C20.4359 5.84505 22.7352 2.85848 22.7352 2.85848C23.2725 2.37113 24.1098 2.38363 24.6846 2.95845L25.9967 4.09559C26.9589 5.05779 27.4962 6.36988 27.4962 7.79444C27.4962 16.4917 15.2875 27.4883 7.80237 27.4883Z" fill="#222222"/>
</svg>